# 3ds Max Wavefront OBJ Exporter v0.97b - (c)2007 guruware
# File Created: 13.08.2015 10:40:14

mtllib ramka2.mtl

#
# object Plane001
#

#
# object Plane005
#

v  57.8515 2.7559 16.5772
v  57.8515 2.7559 15.4060
v  60.2038 2.7559 15.4060
v  60.2038 2.7559 16.5772
v  57.8715 2.7559 13.8013
v  60.1838 2.7559 13.8013
v  60.1838 2.7559 -14.4952
v  57.8715 2.7559 -14.4952
v  57.8056 2.7559 -16.0540
v  60.2497 2.7559 -16.0540
v  60.2497 2.7559 -17.3170
v  57.8056 2.7559 -17.3170
v  57.0591 0.0000 17.3696
v  60.9961 0.0000 17.3696
v  60.9961 2.1916 17.3696
v  57.0591 2.1916 17.3696
v  60.9961 0.0000 14.6137
v  60.9961 2.1916 14.6137
v  60.9961 0.0000 -15.3076
v  60.9961 2.1916 -15.3076
v  60.9961 0.0000 -18.0635
v  60.9961 2.1916 -18.0635
v  57.0591 0.0000 -18.0635
v  57.0591 2.1916 -18.0635
v  57.0591 0.0000 -15.3076
v  57.0591 0.0000 14.6137
v  57.0591 2.7559 14.6137
v  57.0591 2.7559 -15.3076
v  -1.1761 2.3622 16.9242
v  1.1761 2.3622 16.9242
v  1.1761 2.3622 15.7530
v  -1.1761 2.3622 15.7530
v  -1.1655 2.7559 14.1576
v  1.1655 2.7559 14.1576
v  1.1655 2.7559 -14.1576
v  -1.1655 2.7559 -14.1576
v  -1.2681 2.7559 -15.6610
v  1.2681 2.7559 -15.6610
v  1.2681 2.7559 -17.0161
v  -1.2681 2.7559 -17.0161
v  -1.9685 0.0000 14.9606
v  -1.9685 0.0000 17.7165
v  -1.9685 2.1916 17.7165
v  -1.9685 2.1916 14.9606
v  1.9685 0.0000 17.7165
v  1.9685 2.1916 17.7165
v  1.9685 0.0000 14.9606
v  1.9685 0.0000 -14.9606
v  1.9685 2.7559 -14.9606
v  1.9685 2.7559 14.9606
v  1.9685 0.0000 -17.7165
v  -1.9685 0.0000 -17.7165
v  -1.9685 2.1916 -17.7165
v  1.9685 2.1916 -17.7165
v  -1.9685 0.0000 -14.9606
v  -1.9685 2.1916 -14.9606
v  56.2967 2.7559 16.6120
v  56.2967 2.7559 15.3809
v  2.7309 2.7559 15.7182
v  2.7309 2.7559 16.9494
v  56.3107 2.7559 -16.0513
v  56.3107 2.7559 -17.3103
v  2.7169 2.7559 -16.9728
v  2.7169 2.7559 -15.7138
v  60.4369 2.7559 -15.8668
v  57.6183 2.7559 -15.8668
v  60.4369 2.7559 -17.5043
v  57.6183 2.7559 -17.5043
v  60.4369 2.3622 -15.8668
v  57.6183 2.3622 -15.8668
v  60.4369 2.3622 -17.5043
v  57.6183 2.3622 -17.5043
v  60.2497 2.3622 -16.0540
v  57.8056 2.3622 -16.0540
v  60.2497 2.3622 -17.3170
v  57.8056 2.3622 -17.3170
v  56.4999 2.7559 -17.5007
v  56.4999 2.7559 -15.8633
v  2.5277 2.7559 -17.1608
v  2.5277 2.7559 -15.5234
v  56.4999 2.3622 -17.5007
v  56.4999 2.3622 -15.8633
v  2.5277 2.3622 -17.1608
v  2.5277 2.3622 -15.5234
v  56.3107 2.3622 -17.3103
v  56.3107 2.3622 -16.0513
v  2.7169 2.3622 -16.9728
v  2.7169 2.3622 -15.7138
v  1.4173 2.7559 -15.5118
v  -1.4173 2.7559 -15.5118
v  1.4173 2.7559 -17.1654
v  -1.4173 2.7559 -17.1654
v  1.4173 2.3622 -15.5118
v  -1.4173 2.3622 -15.5118
v  1.4173 2.3622 -17.1654
v  -1.4173 2.3622 -17.1654
v  1.2681 2.3622 -15.6610
v  -1.2681 2.3622 -15.6610
v  1.2681 2.3622 -17.0161
v  -1.2681 2.3622 -17.0161
v  1.4173 2.7559 14.4094
v  -1.4173 2.7559 14.4094
v  1.4173 2.7559 -14.4094
v  -1.4173 2.7559 -14.4094
v  1.4173 2.3622 14.4094
v  -1.4173 2.3622 14.4094
v  1.4173 2.3622 -14.4094
v  -1.4173 2.3622 -14.4094
v  1.1655 2.3622 14.1576
v  -1.1655 2.3622 14.1576
v  1.1655 2.3622 -14.1576
v  -1.1655 2.3622 -14.1576
v  -1.4173 2.7559 15.5118
v  1.4173 2.7559 15.5118
v  -1.4173 2.7559 17.1654
v  1.4173 2.7559 17.1654
v  -1.4173 2.3622 15.5118
v  1.4173 2.3622 15.5118
v  -1.4173 2.3622 17.1654
v  1.4173 2.3622 17.1654
v  56.5079 2.7559 15.1683
v  56.5079 2.7559 16.8219
v  2.5197 2.7559 15.5084
v  2.5197 2.7559 17.1619
v  56.5079 2.3622 15.1683
v  56.5079 2.3622 16.8219
v  2.5197 2.3622 15.5084
v  2.5197 2.3622 17.1619
v  56.2967 2.3622 15.3809
v  56.2967 2.3622 16.6120
v  2.7309 2.3622 15.7182
v  2.7309 2.3622 16.9494
v  57.6103 2.7559 15.1649
v  60.4449 2.7559 15.1649
v  57.6103 2.7559 16.8184
v  60.4449 2.7559 16.8184
v  57.6103 2.3622 15.1649
v  60.4449 2.3622 15.1649
v  57.6103 2.3622 16.8184
v  60.4449 2.3622 16.8184
v  57.8515 2.3622 15.4060
v  60.2038 2.3622 15.4060
v  57.8515 2.3622 16.5772
v  60.2038 2.3622 16.5772
v  60.4449 2.7559 14.0625
v  57.6103 2.7559 14.0625
v  60.4449 2.7559 -14.7564
v  57.6103 2.7559 -14.7564
v  60.4449 2.3622 14.0625
v  57.6103 2.3622 14.0625
v  60.4449 2.3622 -14.7564
v  57.6103 2.3622 -14.7564
v  60.1838 2.3622 13.8013
v  57.8715 2.3622 13.8013
v  60.1838 2.3622 -14.4952
v  57.8715 2.3622 -14.4952
# 156 vertices

vn 0.0000 -1.0000 -0.0000
vn 0.0000 1.0000 -0.0000
vn 0.0000 0.0000 1.0000
vn 1.0000 0.0000 -0.0000
vn 0.0000 0.0000 -1.0000
vn -1.0000 0.0000 -0.0000
vn -0.0063 0.0000 -1.0000
vn 0.0063 0.0000 1.0000
vn 0.0744 0.8903 0.4492
vn 0.7103 0.7039 -0.0000
vn 0.0000 0.7039 -0.7103
vn -0.4475 0.8870 -0.1139
vn 0.4469 0.8873 -0.1140
vn -0.0045 0.7039 -0.7103
vn -0.4481 0.8867 -0.1139
vn -0.0740 0.8877 0.4544
vn 0.4527 0.8844 -0.1132
vn 0.0000 0.6988 -0.7154
vn -0.7154 0.6988 -0.0000
vn -0.0740 0.8877 -0.4544
vn 0.0000 0.6988 0.7154
vn 0.4527 0.8844 0.1132
vn 0.4533 0.8841 0.1131
vn -0.4522 0.8847 0.1132
vn 0.0045 0.6988 0.7154
vn 0.0740 0.8877 -0.4544
vn -0.4527 0.8844 0.1132
vn 0.7154 0.6988 -0.0000
vn 0.0740 0.8877 0.4544
# 29 vertex normals

vt 0.0000 0.0000 0.0000
vt 0.0000 0.3333 0.0000
vt 1.0000 0.3333 0.0000
vt 1.0000 0.0000 0.0000
vt 1.0000 0.6667 0.0000
vt 0.0000 0.6667 0.0000
vt 1.0000 1.0000 0.0000
vt 0.0000 1.0000 0.0000
# 8 texture coords

g Plane005
usemtl wire_135059008
s 1
f 1/1/1 2/2/1 3/3/1 4/4/1 
f 5/2/2 6/3/2 7/5/2 8/6/2 
f 9/6/2 10/5/2 11/7/2 12/8/2 
s off
f 13/1/3 14/4/3 15/4/3 16/1/3 
f 14/4/4 17/3/4 18/3/4 15/4/4 
f 17/3/4 19/5/4 20/5/4 18/3/4 
f 19/5/4 21/7/4 22/7/4 20/5/4 
f 21/7/5 23/8/5 24/8/5 22/7/5 
f 25/6/6 26/2/6 27/2/6 28/6/6 
s 1
f 29/1/2 30/4/2 31/3/2 32/2/2 
f 33/2/2 34/3/2 35/5/2 36/6/2 
f 37/6/2 38/5/2 39/7/2 40/8/2 
s off
f 41/2/6 42/1/6 43/1/6 44/2/6 
f 42/1/3 45/4/3 46/4/3 43/1/3 
f 47/3/4 48/5/4 49/5/4 50/3/4 
f 51/7/5 52/8/5 53/8/5 54/7/5 
f 52/8/6 55/6/6 56/6/6 53/8/6 
f 55/6/6 41/2/6 44/2/6 56/6/6 
s 2
f 27/2/7 26/2/7 47/3/7 50/3/7 
s 4
f 26/1/1 13/1/1 45/1/1 47/1/1 
s 2
f 13/1/8 16/1/8 46/4/8 45/4/8 
s 4
f 57/1/2 58/2/2 59/3/2 60/4/2 
s 2
f 25/6/8 28/6/8 49/5/8 48/5/8 
s 4
f 61/6/2 62/8/2 63/7/2 64/5/2 
s 2
f 24/8/7 23/8/7 51/7/7 54/7/7 
s 4
f 23/1/1 25/1/1 48/1/1 51/1/1 
s off
f 28/6/9 20/5/9 65/5/9 66/6/9 
f 20/5/10 22/7/10 67/7/10 65/5/10 
f 22/7/11 24/8/11 68/8/11 67/7/11 
f 24/8/12 28/6/12 66/6/12 68/8/12 
f 66/6/5 65/5/5 69/5/5 70/6/5 
f 65/5/6 67/7/6 71/7/6 69/5/6 
f 67/7/3 68/8/3 72/8/3 71/7/3 
f 68/8/4 66/6/4 70/6/4 72/8/4 
f 70/6/2 69/5/2 73/5/2 74/6/2 
f 69/5/2 71/7/2 75/7/2 73/5/2 
f 71/7/2 72/8/2 76/8/2 75/7/2 
f 72/8/2 70/6/2 74/6/2 76/8/2 
f 74/6/3 73/5/3 10/5/3 9/6/3 
f 73/5/4 75/7/4 11/7/4 10/5/4 
f 75/7/5 76/8/5 12/8/5 11/7/5 
f 76/8/6 74/6/6 9/6/6 12/8/6 
f 28/6/13 24/8/13 77/8/13 78/6/13 
f 24/8/14 54/7/14 79/7/14 77/8/14 
f 54/7/15 49/5/15 80/5/15 79/7/15 
f 49/5/2 28/6/2 78/6/2 80/5/2 
f 78/6/6 77/8/6 81/8/6 82/6/6 
f 77/8/8 79/7/8 83/7/8 81/8/8 
f 79/7/4 80/5/4 84/5/4 83/7/4 
f 80/5/7 78/6/7 82/6/7 84/5/7 
f 82/6/2 81/8/2 85/8/2 86/6/2 
f 81/8/2 83/7/2 87/7/2 85/8/2 
f 83/7/2 84/5/2 88/5/2 87/7/2 
f 84/5/2 82/6/2 86/6/2 88/5/2 
f 86/6/4 85/8/4 62/8/4 61/6/4 
f 85/8/7 87/7/7 63/7/7 62/8/7 
f 87/7/6 88/5/6 64/5/6 63/7/6 
f 88/5/8 86/6/8 61/6/8 64/5/8 
f 56/6/16 49/5/16 89/5/16 90/6/16 
f 49/5/17 54/7/17 91/7/17 89/5/17 
f 54/7/18 53/8/18 92/8/18 91/7/18 
f 53/8/19 56/6/19 90/6/19 92/8/19 
f 90/6/5 89/5/5 93/5/5 94/6/5 
f 89/5/6 91/7/6 95/7/6 93/5/6 
f 91/7/3 92/8/3 96/8/3 95/7/3 
f 92/8/4 90/6/4 94/6/4 96/8/4 
f 94/6/2 93/5/2 97/5/2 98/6/2 
f 93/5/2 95/7/2 99/7/2 97/5/2 
f 95/7/2 96/8/2 100/8/2 99/7/2 
f 96/8/2 94/6/2 98/6/2 100/8/2 
f 98/6/3 97/5/3 38/5/3 37/6/3 
f 97/5/4 99/7/4 39/7/4 38/5/4 
f 99/7/5 100/8/5 40/8/5 39/7/5 
f 100/8/6 98/6/6 37/6/6 40/8/6 
f 44/2/16 50/3/16 101/3/16 102/2/16 
f 50/3/2 49/5/2 103/5/2 101/3/2 
f 49/5/20 56/6/20 104/6/20 103/5/20 
f 56/6/19 44/2/19 102/2/19 104/6/19 
f 102/2/5 101/3/5 105/3/5 106/2/5 
f 101/3/6 103/5/6 107/5/6 105/3/6 
f 103/5/3 104/6/3 108/6/3 107/5/3 
f 104/6/4 102/2/4 106/2/4 108/6/4 
f 106/2/2 105/3/2 109/3/2 110/2/2 
f 105/3/2 107/5/2 111/5/2 109/3/2 
f 107/5/2 108/6/2 112/6/2 111/5/2 
f 108/6/2 106/2/2 110/2/2 112/6/2 
f 110/2/3 109/3/3 34/3/3 33/2/3 
f 109/3/4 111/5/4 35/5/4 34/3/4 
f 111/5/5 112/6/5 36/6/5 35/5/5 
f 112/6/6 110/2/6 33/2/6 36/6/6 
f 50/3/20 44/2/20 113/2/20 114/3/20 
f 44/2/19 43/1/19 115/1/19 113/2/19 
f 43/1/21 46/4/21 116/4/21 115/1/21 
f 46/4/22 50/3/22 114/3/22 116/4/22 
f 114/3/3 113/2/3 117/2/3 118/3/3 
f 113/2/4 115/1/4 119/1/4 117/2/4 
f 115/1/5 116/4/5 120/4/5 119/1/5 
f 116/4/6 114/3/6 118/3/6 120/4/6 
f 118/3/2 117/2/2 32/2/2 31/3/2 
f 117/2/2 119/1/2 29/1/2 32/2/2 
f 119/1/2 120/4/2 30/4/2 29/1/2 
f 120/4/2 118/3/2 31/3/2 30/4/2 
f 16/1/23 27/2/23 121/2/23 122/1/23 
f 27/2/2 50/3/2 123/3/2 121/2/2 
f 50/3/24 46/4/24 124/4/24 123/3/24 
f 46/4/25 16/1/25 122/1/25 124/4/25 
f 122/1/6 121/2/6 125/2/6 126/1/6 
f 121/2/8 123/3/8 127/3/8 125/2/8 
f 123/3/4 124/4/4 128/4/4 127/3/4 
f 124/4/7 122/1/7 126/1/7 128/4/7 
f 126/1/2 125/2/2 129/2/2 130/1/2 
f 125/2/2 127/3/2 131/3/2 129/2/2 
f 127/3/2 128/4/2 132/4/2 131/3/2 
f 128/4/2 126/1/2 130/1/2 132/4/2 
f 130/1/4 129/2/4 58/2/4 57/1/4 
f 129/2/7 131/3/7 59/3/7 58/2/7 
f 131/3/6 132/4/6 60/4/6 59/3/6 
f 132/4/8 130/1/8 57/1/8 60/4/8 
f 18/3/26 27/2/26 133/2/26 134/3/26 
f 27/2/27 16/1/27 135/1/27 133/2/27 
f 16/1/21 15/4/21 136/4/21 135/1/21 
f 15/4/28 18/3/28 134/3/28 136/4/28 
f 134/3/3 133/2/3 137/2/3 138/3/3 
f 133/2/4 135/1/4 139/1/4 137/2/4 
f 135/1/5 136/4/5 140/4/5 139/1/5 
f 136/4/6 134/3/6 138/3/6 140/4/6 
f 138/3/2 137/2/2 141/2/2 142/3/2 
f 137/2/2 139/1/2 143/1/2 141/2/2 
f 139/1/2 140/4/2 144/4/2 143/1/2 
f 140/4/2 138/3/2 142/3/2 144/4/2 
f 27/2/29 18/3/29 145/3/29 146/2/29 
f 18/3/28 20/5/28 147/5/28 145/3/28 
f 20/5/26 28/6/26 148/6/26 147/5/26 
f 28/6/2 27/2/2 146/2/2 148/6/2 
f 146/2/5 145/3/5 149/3/5 150/2/5 
f 145/3/6 147/5/6 151/5/6 149/3/6 
f 147/5/3 148/6/3 152/6/3 151/5/3 
f 148/6/4 146/2/4 150/2/4 152/6/4 
f 150/2/2 149/3/2 153/3/2 154/2/2 
f 149/3/2 151/5/2 155/5/2 153/3/2 
f 151/5/2 152/6/2 156/6/2 155/5/2 
f 152/6/2 150/2/2 154/2/2 156/6/2 
f 154/2/3 153/3/3 6/3/3 5/2/3 
f 153/3/4 155/5/4 7/5/4 6/3/4 
f 155/5/5 156/6/5 8/6/5 7/5/5 
f 156/6/6 154/2/6 5/2/6 8/6/6 
f 142/3/5 141/2/5 2/2/5 3/3/5 
f 141/2/6 143/1/6 1/1/6 2/2/6 
f 143/1/3 144/4/3 4/4/3 1/1/3 
f 144/4/4 142/3/4 3/3/4 4/4/4 
# 150 polygons

#
# object Plane003
#

